#!OML:ASF F:\VICON\USERDATA\INSTALL\rory3\rory3.ASF
:FULLY-SPECIFIED
:DEGREES
412
root -0.0238634 17.7055 12.2084 -1.549 4.0758 -5.28417
lowerback 7.08464 0.964825 -0.582748
upperback 0.514312 1.41074 4.50734
thorax -3.5741 0.748434 4.87616
lowerneck -15.6737 -5.38219 -13.4008
upperneck 34.3255 -6.12244 6.71513
head 15.335 -3.43741 4.09101
rclavicle 2.93207e-015 -1.82882e-014
rhumerus -32.5215 -15.618 -70.1969
rradius 31.3345
rwrist -13.9431
rhand -12.2975 17.3208
rfingers 7.12502
rthumb 13.7703 -12.2035
lclavicle 2.93207e-015 -1.82882e-014
lhumerus -37.9964 4.29368 85.3141
lradius 35.8921
lwrist -5.05247
lhand 1.04415 31.8528
lfingers 7.12502
lthumb 26.5901 60.006
rfemur -4.74152 2.48199 30.4587
rtibia 29.7244
rfoot -17.3794 -6.83113
rtoes 19.5167
lfemur -27.7865 5.64081 -13.5357
ltibia 70.0928
lfoot -3.88431 -5.09195
ltoes -11.3162
413
root 0.00219848 17.7049 12.405 -1.60607 3.82691 -5.40258
lowerback 6.81206 1.08638 -0.219065
upperback 0.616269 1.58989 4.46266
thorax -3.3201 0.827586 4.6059
lowerneck -15.7997 -5.43643 -13.4749
upperneck 34.2927 -6.17429 6.7601
head 15.362 -3.45968 4.11124
rclavicle 5.11871e-015 -1.35174e-014
rhumerus -32.2091 -15.1607 -70.3833
rradius 31.8443
rwrist -14.4167
rhand -12.13 17.5855
rfingers 7.12502
rthumb 13.9318 -11.9277
lclavicle 5.11871e-015 -1.35174e-014
lhumerus -37.8689 4.582 85.3255
lradius 35.5284
lwrist -5.17441
lhand 1.0197 31.9234
lfingers 7.12502
lthumb 26.5667 60.0802
rfemur -3.80173 2.05984 30.4419
rtibia 29.503
rfoot -17.9282 -6.25642
rtoes 19.4328
lfemur -28.2265 5.73844 -13.6589
ltibia 68.8692
lfoot -5.26673 -4.63764
ltoes -11.1705
414
root 0.00404556 17.6884 12.5594 -1.53719 3.42166 -5.73302
lowerback 6.87956 1.22421 0.0146639
upperback 0.64632 1.79518 4.54882
thorax -3.33955 0.927104 4.54226
lowerneck -16.0154 -5.42711 -13.627
upperneck 34.2998 -6.16344 6.9942
head 15.4309 -3.44048 4.24044
rclavicle 9.21864e-015 5.24792e-014
rhumerus -31.5929 -14.6954 -70.6674
rradius 32.2586
rwrist -14.7399
rhand -12.3365 17.5695
rfingers 7.12502
rthumb 13.7328 -11.9574
lclavicle 9.21864e-015 5.24792e-014
lhumerus -37.7921 4.97166 85.2667
lradius 35.315
lwrist -5.31828
lhand 0.970875 31.622
lfingers 7.12502
lthumb 26.52 59.7858
rfemur -3.20773 2.58841 30.9579
rtibia 29.2657
rfoot -18.0252 -6.49024
rtoes 19.1844
lfemur -29.0828 6.10773 -13.3789
ltibia 67.5618
lfoot -6.36809 -4.48221
ltoes -10.7395
415
root 0.0122432 17.6698 12.7145 -1.46131 3.03488 -5.98558
lowerback 6.83275 1.33693 0.218027
upperback 0.692343 1.95996 4.60979
thorax -3.27422 1.00578 4.47517
lowerneck -16.1773 -5.32854 -13.5673
upperneck 34.4121 -6.00719 6.97963
head 15.4963 -3.36828 4.25636
rclavicle 1.66731e-014 1.07344e-014
rhumerus -30.9594 -14.1722 -70.9409
rradius 32.6578
rwrist -14.9663
rhand -12.4266 17.3142
rfingers 7.12502
rthumb 13.6459 -12.2184
lclavicle 1.66731e-014 1.07344e-014
lhumerus -37.8542 5.29582 85.2225
lradius 35.2647
lwrist -5.42464
lhand 1.0977 31.4355
lfingers 7.12502
lthumb 26.6414 59.5809
rfemur -2.5343 3.09396 31.362
rtibia 28.912
rfoot -18.0417 -6.74952
rtoes 18.8833
lfemur -29.7919 6.38566 -13.2379
ltibia 66.0187
lfoot -7.36671 -4.21609
ltoes -10.2668
416
root 0.0235189 17.6591 12.8753 -1.30716 2.74196 -6.10137
lowerback 6.51679 1.44892 0.354954
upperback 0.848119 2.10327 4.60897
thorax -2.94188 1.0714 4.38934
lowerneck -16.3318 -5.36803 -13.3486
upperneck 34.1745 -5.98783 6.66424
head 15.3927 -3.36429 4.07256
rclavicle 6.63444e-015 2.5842e-014
rhumerus -30.2863 -13.7953 -71.2109
rradius 33.1387
rwrist -15.2488
rhand -12.3874 17.2641
rfingers 7.12502
rthumb 13.6836 -12.2661
lclavicle 6.63444e-015 2.5842e-014
lhumerus -37.6275 5.46046 85.2633
lradius 35.1367
lwrist -5.36435
lhand 1.31479 31.6921
lfingers 7.12502
lthumb 26.8491 59.8058
rfemur -1.93858 3.5049 31.5812
rtibia 28.5935
rfoot -18.1344 -7.00416
rtoes 18.4547
lfemur -30.484 6.49133 -13.2895
ltibia 64.2943
lfoot -7.84239 -3.65162
ltoes -9.44317
